<svg
   viewBox="0 0 1330.9333 1391.0133"
   height="1391.0133"
   width="1330.9333"
   xml:space="preserve"
   id="svg2"
   version="1.1"
   sodipodi:docname="penguin.svg"
   inkscape:version="1.4 (e7c3feb1, 2024-10-09)"
   xmlns:inkscape="http://www.inkscape.org/namespaces/inkscape"
   xmlns:sodipodi="http://sodipodi.sourceforge.net/DTD/sodipodi-0.dtd"
   xmlns="http://www.w3.org/2000/svg"
   xmlns:svg="http://www.w3.org/2000/svg"><g xmlns="http://www.w3.org/2000/svg" inkscape:groupmode="layer" id="layer1" inkscape:label="Balloon"><path id="path214" style="fill:#f68294;fill-opacity:1;fill-rule:evenodd;stroke:none" d="m 7114.21,6448.24 c 0,17.97 14.56,32.53 32.51,32.53 17.99,0 32.55,-14.56 32.55,-32.53 V 5076.11 c 0,-17.96 -14.59,-32.52 -32.55,-32.52 -17.95,0 -32.51,14.56 -32.51,32.52 v 1372.13" transform="matrix(0.13333333,0,0,-0.13333333,0,1391.0133)"/><path id="path216" style="fill:#c82c37;fill-opacity:1;fill-rule:evenodd;stroke:none" d="m 7146.72,6518.79 77.1,-121.82 77.06,-121.84 h -308.29 l 77.06,121.84 77.07,121.82" transform="matrix(0.13333333,0,0,-0.13333333,0,1391.0133)"/><path id="path218" style="fill:#f14960;fill-opacity:1;fill-rule:evenodd;stroke:none" d="m 7146.72,9075.01 c 622.29,0 1126.75,-504.45 1126.75,-1126.74 0,-622.29 -504.46,-1500.03 -1126.75,-1500.03 -622.28,0 -1126.72,877.74 -1126.72,1500.03 0,622.29 504.44,1126.74 1126.72,1126.74" transform="matrix(0.13333333,0,0,-0.13333333,0,1391.0133)"/><path id="path220" style="fill:#e43443;fill-opacity:1;fill-rule:evenodd;stroke:none" d="m 8273.21,7927.56 c -10.96,-620.87 -511.07,-1479.32 -1126.49,-1479.32 -484.39,0 -897.37,531.89 -1056.59,1061.12 234.54,-354.26 589.82,-632.53 987.49,-632.53 546.19,0 1012.32,524.95 1195.59,1050.73" transform="matrix(0.13333333,0,0,-0.13333333,0,1391.0133)"/><path id="path222" style="fill:#f5768a;fill-opacity:1;fill-rule:evenodd;stroke:none" d="m 6835.83,8979.21 c 280.32,94.74 552.44,38.86 607.74,-124.83 55.36,-163.7 -127.07,-373.21 -407.39,-467.97 -280.34,-94.74 -552.44,-38.86 -607.78,124.85 -55.33,163.68 127.09,373.2 407.43,467.95" transform="matrix(0.13333333,0,0,-0.13333333,0,1391.0133)"/></g></svg>