<svg
   viewBox="0 0 1330.9333 1391.0133"
   height="1391.0133"
   width="1330.9333"
   xml:space="preserve"
   id="svg2"
   version="1.1"
   sodipodi:docname="penguin.svg"
   inkscape:version="1.4 (e7c3feb1, 2024-10-09)"
   xmlns:inkscape="http://www.inkscape.org/namespaces/inkscape"
   xmlns:sodipodi="http://sodipodi.sourceforge.net/DTD/sodipodi-0.dtd"
   xmlns="http://www.w3.org/2000/svg"
   xmlns:svg="http://www.w3.org/2000/svg"><g xmlns="http://www.w3.org/2000/svg" transform="matrix(0.13333333,0,0,-0.13333333,0,1391.0133)" id="g24" inkscape:label="Details"><path id="path192" style="fill:#ffffff;fill-opacity:1;fill-rule:evenodd;stroke:none" d="m 5365.01,5292.18 c 78.99,0 143.43,64.44 143.43,143.44 0,79 -64.44,143.44 -143.43,143.44 -78.99,0 -143.44,-64.44 -143.44,-143.44 0,-79 64.45,-143.44 143.44,-143.44"/><path id="path194" style="fill:#ffffff;fill-opacity:1;fill-rule:evenodd;stroke:none" d="m 5295,4977.66 c 47.13,0 85.56,38.42 85.56,85.54 0,47.11 -38.43,85.54 -85.56,85.54 -47.1,0 -85.54,-38.43 -85.54,-85.54 0,-47.12 38.44,-85.54 85.54,-85.54"/><path id="path196" style="fill:#ffffff;fill-opacity:1;fill-rule:evenodd;stroke:none" d="m 4176.07,5292.18 c 78.97,0 143.42,64.44 143.42,143.44 0,79 -64.45,143.44 -143.42,143.44 -79.02,0 -143.45,-64.44 -143.45,-143.44 0,-79 64.43,-143.44 143.45,-143.44"/><path id="path198" style="fill:#ffffff;fill-opacity:1;fill-rule:evenodd;stroke:none" d="m 4106.07,4977.66 c 47.12,0 85.53,38.42 85.53,85.54 0,47.11 -38.41,85.54 -85.53,85.54 -47.12,0 -85.56,-38.43 -85.56,-85.54 0,-47.12 38.44,-85.54 85.56,-85.54"/><path id="path208" style="fill:#dab013;fill-opacity:1;fill-rule:evenodd;stroke:none" d="m 4920.99,4361.47 230.48,461.4 -230.48,100.25 -230.49,-100.25 230.49,-461.4"/><path id="path210" style="fill:#fbca07;fill-opacity:1;fill-rule:evenodd;stroke:none" d="m 4920.99,4923.12 1.57,-35.31 -1.57,-526.34 -230.49,461.4 230.49,100.25"/><path id="path212" style="fill:#fbe558;fill-opacity:1;fill-rule:evenodd;stroke:none" d="m 4878.91,4882.39 0.88,-20.21 -0.88,-300.98 -131.81,263.87 131.81,57.32"/></g></svg>