<svg
   viewBox="0 0 1330.9333 1391.0133"
   height="1391.0133"
   width="1330.9333"
   xml:space="preserve"
   id="svg2"
   version="1.1"
   sodipodi:docname="penguin.svg"
   inkscape:version="1.4 (e7c3feb1, 2024-10-09)"
   xmlns:inkscape="http://www.inkscape.org/namespaces/inkscape"
   xmlns:sodipodi="http://sodipodi.sourceforge.net/DTD/sodipodi-0.dtd"
   xmlns="http://www.w3.org/2000/svg"
   xmlns:svg="http://www.w3.org/2000/svg"><g xmlns="http://www.w3.org/2000/svg" transform="matrix(0.13333333,0,0,-0.13333333,18.19736,1095.9365)" id="g12-6-7" inkscape:label="Eyes"><path id="path188" style="fill:#100f0d;fill-opacity:1;fill-rule:evenodd;stroke:none" d="m 4321.21,4638.94 c 137.08,0 248.84,235.21 248.84,523.63 0,288.4 -111.76,523.62 -248.84,523.62 -137.06,0 -248.83,-235.22 -248.83,-523.62 0,-288.42 111.77,-523.63 248.83,-523.63" transform="translate(-136.4802,-2213.0761)"/><path id="path190" style="fill:#100f0d;fill-opacity:1;fill-rule:evenodd;stroke:none" d="m 5510.18,4638.94 c 137.05,0 248.85,235.21 248.85,523.63 0,288.4 -111.8,523.62 -248.85,523.62 -137.07,0 -248.85,-235.22 -248.85,-523.62 0,-288.42 111.78,-523.63 248.85,-523.63" transform="translate(-136.4802,-2213.0761)"/></g></svg>