<svg
   viewBox="0 0 1330.9333 1391.0133"
   height="1391.0133"
   width="1330.9333"
   xml:space="preserve"
   id="svg2"
   version="1.1"
   sodipodi:docname="penguin.svg"
   inkscape:version="1.4 (e7c3feb1, 2024-10-09)"
   xmlns:inkscape="http://www.inkscape.org/namespaces/inkscape"
   xmlns:sodipodi="http://sodipodi.sourceforge.net/DTD/sodipodi-0.dtd"
   xmlns="http://www.w3.org/2000/svg"
   xmlns:svg="http://www.w3.org/2000/svg"><path xmlns="http://www.w3.org/2000/svg" style="fill:#000000;stroke-width:1.37861" d="M 621.75124,1207.5806 C 490.89393,1189.9072 393.59197,1078.7208 393.59197,946.86434 c 0,-32.11269 6.3872,-66.87487 17.42976,-94.86101 4.52553,-11.46946 18.65093,-39.95552 21.0573,-42.46533 0.5707,-0.59523 11.57292,1.53322 24.44938,4.72989 l 23.41174,5.81214 -3.97586,9.74546 c -16.3792,40.14803 -17.52228,91.74094 -2.97173,134.12954 12.4474,36.26167 39.48321,72.54747 70.42751,94.52327 22.85283,16.2295 52.61284,28.55 80.29736,33.2427 16.89853,2.8644 48.00001,2.8747 64.99791,0.021 61.07931,-10.2526 114.04364,-50.003 141.28933,-106.03922 7.11745,-14.63845 15.77002,-40.40987 15.77002,-46.97051 0,-5.49006 1.99702,-4.78025 7.8563,2.7924 12.18305,15.74561 33.40791,29.36924 54.03337,34.6825 l 9.33719,2.40531 -1.87318,11.81679 c -9.0417,57.03863 -41.01579,114.71863 -84.98832,153.31553 -24.12035,21.1716 -57.04241,40.6903 -85.49637,50.6888 -39.02839,13.7142 -83.48032,18.4696 -122.89244,13.1466 z" id="path1"/></svg>