<svg
   viewBox="0 0 1330.9333 1391.0133"
   height="1391.0133"
   width="1330.9333"
   xml:space="preserve"
   id="svg2"
   version="1.1"
   sodipodi:docname="penguin.svg"
   inkscape:version="1.4 (e7c3feb1, 2024-10-09)"
   xmlns:inkscape="http://www.inkscape.org/namespaces/inkscape"
   xmlns:sodipodi="http://sodipodi.sourceforge.net/DTD/sodipodi-0.dtd"
   xmlns="http://www.w3.org/2000/svg"
   xmlns:svg="http://www.w3.org/2000/svg"><g xmlns="http://www.w3.org/2000/svg" transform="matrix(1.3333333,0,0,-1.3333333,0,1391.0133)" id="g10" inkscape:label="Scarf"><path id="path200" style="fill:#f14960;fill-opacity:1;fill-rule:evenodd;stroke:none" d="m 3416.14,5034.45 c 1014.1,-295.11 2016.99,-266.53 3011.95,-7.3 215.68,56.19 349.83,-596.75 134.7,-654.9 -1104.14,-298.49 -2198.67,-299.05 -3283.68,-4.91 -308.23,83.54 -196.65,764.22 137.03,667.11" sodipodi:nodetypes="ccccc" transform="scale(0.1)"/><path id="path202" style="fill:#d82a34;fill-opacity:1;fill-rule:evenodd;stroke:none" d="m 6138.72,4958.42 c 96.53,20.69 192.98,43.62 289.37,68.73 88.1,22.95 162.55,-72.39 205.22,-197.18 L 6376.27,4324.68 C 6169.34,4275 5962.75,4235.78 5756.51,4207 Z m -1034.8,-131.75 c 195.84,7.27 391.34,24.89 586.48,52.18 l -364.6,-716.81 c -189.1,-13.06 -377.9,-17.29 -566.4,-12.72 z m -943.47,47.72 c 178.9,-25.18 357.44,-40.9 535.68,-47.68 l -333.05,-654.75 c -175.02,15.73 -349.79,39.03 -524.33,69.96 z m -744.31,160.06 c 123.58,-35.95 247.03,-67.08 370.29,-93.61 L 3469.97,4318.7 c -63.66,15.2 -127.28,31.41 -190.86,48.64 -130.09,35.25 -185.39,176.87 -180.78,321.48 l 170.81,335.82 c 42.27,20.51 91.55,25.95 147,9.81 v 0" sodipodi:nodetypes="csccccccccccccccccccccsc" transform="scale(0.1)"/><path id="path204" style="fill:#f5768a;fill-opacity:1;fill-rule:evenodd;stroke:none" d="M 5690.4,4878.85 C 6177.53,4270 6074.81,2947.01 7210.59,3100.91 c 386.93,152.19 691.68,359.17 746.54,732.74 -994.06,-317.84 -1047.99,788.3 -1572.02,1182.46 -233.64,175.73 -797.89,-8.31 -694.71,-137.26" transform="scale(0.1)"/><path id="path206" style="fill:#e73241;fill-opacity:1;fill-rule:evenodd;stroke:none" d="m 6532.92,3250.22 513.97,838.42 c 104.7,-131.71 227.04,-236.77 387.41,-284.15 l -295.09,-711.24 c -264.75,-22.32 -458.09,40.5 -606.29,156.97 z m -655.99,1311.51 c 89.78,-198.26 159.02,-421.61 238.37,-633.37 l 612.99,665.17 c -97.31,161.57 -201.2,313.18 -336.45,417.31 l -514.91,-449.11 v 0" transform="scale(0.1)"/></g></svg>