<?xml version="1.0" encoding="UTF-8" standalone="no"?>
<svg
   xmlns:dc="http://purl.org/dc/elements/1.1/"
   xmlns:cc="http://creativecommons.org/ns#"
   xmlns:rdf="http://www.w3.org/1999/02/22-rdf-syntax-ns#"
   xmlns:svg="http://www.w3.org/2000/svg"
   xmlns="http://www.w3.org/2000/svg"
   viewBox="0 0 1330.9333 1391.0133"
   height="1391.0133"
   width="1330.9333"
   xml:space="preserve"
   id="svg2"
   version="1.1"><metadata
     id="metadata8"><rdf:RDF><cc:Work
         rdf:about=""><dc:format>image/svg+xml</dc:format><dc:type
           rdf:resource="http://purl.org/dc/dcmitype/StillImage" /></cc:Work></rdf:RDF></metadata><defs
     id="defs6" /><g
     transform="matrix(1.3333333,0,0,-1.3333333,0,1391.0133)"
     id="g10"><g
       transform="scale(0.1)"
       id="g12"><path
         id="path14"
         style="fill:#211d1d;fill-opacity:1;fill-rule:nonzero;stroke:none"
         d="m 355.754,10058.6 c -39.106,-40.9 -85.957,-62.32 -140.465,-64.14 v 78.74 c 28.195,1.4 52.313,15.1 72.356,41.1 9.937,12.7 17.531,26.7 22.835,41.9 l 83.883,-43.5 c -9.707,-19.4 -22.586,-37.5 -38.609,-54.1 z m -68.109,252.4 c -20.043,25.7 -44.161,39.3 -72.356,40.7 v 80 c 54.508,-1.8 101.359,-23.1 140.465,-63.9 19.891,-20.8 34.848,-43.8 45.027,-69 l -86.367,-42.6 c -5.082,20.3 -13.984,38.6 -26.769,54.8 z m -88.18,40.1 c -25.348,-3 -47.332,-16.4 -65.969,-40.1 -21.293,-27.2 -31.937,-60 -31.937,-98.5 0,-38.3 10.644,-71.1 31.937,-98.2 18.637,-24 40.621,-37.5 65.969,-40.5 v -79.06 c -53.719,2.03 -99.8205,23.36 -138.3712,63.86 C 20.3867,10101.2 0,10152.7 0,10213.1 c 0,60.4 20.3867,112 61.0938,154.7 38.5507,40.4 84.6522,61.6 138.3712,63.6 v -80.3" /><path
         id="path16"
         style="fill:#211d1d;fill-opacity:1;fill-rule:nonzero;stroke:none"
         d="m 726.059,10190.6 c 7.711,-7.9 15.117,-19.4 22.203,-34.4 3.015,-3.2 5.66,-16.2 7.933,-38.9 l 3.008,-15.5 9.137,-48.1 c 2.035,-5 4.656,-14.8 7.875,-29.1 3.48,-5.3 9.621,-15 18.566,-28.95 l -103.664,-0.58 c -3.48,0 -9.64,12.33 -18.554,37.03 -1.844,3.1 -7.036,32 -15.536,86.7 -3.636,13 -11.972,23.3 -24.937,31 -12.168,4.3 -41.953,6.4 -89.352,6.4 v 79.1 h 79.325 c 31.039,10.9 46.531,31.4 46.531,61.4 v 7.6 c -6.922,32.6 -25.563,49.6 -55.961,50.8 h -69.895 v 77.5 h 69.895 c 58.594,0 101.062,-15.9 127.394,-47.7 18.68,-27.2 28.016,-55.7 28.016,-85.5 v -5.8 c 0,-34 -9.867,-63.9 -29.488,-89.7 -3.684,-4.8 -7.848,-9.3 -12.496,-13.3 z M 526.914,9994.46 h -99.148 v 436.94 h 99.148 v -436.94" /><path
         id="path18"
         style="fill:#211d1d;fill-opacity:1;fill-rule:nonzero;stroke:none"
         d="m 1141.65,10075.3 v -80.23 H 937.348 v 80.23 z m -17,190.1 v -80.3 H 937.031 v 80.3 z m 16.12,165.1 v -80.3 H 936.438 v 80.3 z M 919.387,9994.46 h -99.114 v 436.94 h 99.114 v -436.94" /><path
         id="path20"
         style="fill:#211d1d;fill-opacity:1;fill-rule:nonzero;stroke:none"
         d="m 1411.63,10430.5 154.18,-436.04 h -112.52 l -29.16,92.74 h -120.74 l 23.43,80.6 h 74.2 v 1.5 l -45.01,160.5 h -1.54 l -94.26,-335.34 h -88.16 v 63.24 l 126.78,372.8 h 112.8" /><path
         id="path22"
         style="fill:#211d1d;fill-opacity:1;fill-rule:nonzero;stroke:none"
         d="m 1800.51,9995.36 h -99.14 v 337.84 h 99.14 z m 110.39,434.24 v -80.3 h -324.76 v 80.3 h 324.76" /><path
         id="path24"
         style="fill:#211d1d;fill-opacity:1;fill-rule:nonzero;stroke:none"
         d="m 2265.68,10075.3 v -80.23 h -204.34 v 80.23 z m -17.04,190.1 v -80.3 h -187.59 v 80.3 z m 16.13,165.1 v -80.3 h -204.35 v 80.3 z m -221.35,-436.04 h -99.15 v 436.94 h 99.15 v -436.94" /><path
         id="path26"
         style="fill:#211d1d;fill-opacity:1;fill-rule:nonzero;stroke:none"
         d="m 2536.89,10299.1 c -6.92,34.1 -25.58,51.4 -56,52 l -69.9,0.9 v 80.6 h 69.9 c 58.56,0 101.05,-16.5 127.44,-49.5 18.63,-28.4 27.95,-58 27.95,-88.8 v -161.2 c 0,-30.8 -9.32,-60.4 -27.95,-88.8 -26.39,-33 -68.88,-49.56 -127.44,-49.56 h -69.9 v 80.56 l 69.9,1 c 30.42,0.5 49.08,17.9 56,52 z m -141.73,-304.64 h -99.13 v 436.94 h 99.13 v -436.94" /><path
         id="path28"
         style="fill:#211d1d;fill-opacity:1;fill-rule:nonzero;stroke:none"
         d="m 2941.79,10431.4 h 1.23 c 70.13,0 114.42,-24.9 132.88,-74.8 4.24,-9.9 6.37,-21.4 6.37,-34.4 v -7.6 c 0.19,-11.1 -2.42,-20.5 -7.91,-28.2 -6.47,-19.1 -17.22,-34.6 -32.19,-46.6 l -14.03,-7.9 -7.29,-2.4 c 7.94,-4.3 14.39,-7.6 19.47,-10 30.8,-18.5 48.34,-45.9 52.6,-82.4 1.01,-4.1 1.52,-8.8 1.52,-14.3 -1.62,-26 -4.15,-41 -7.59,-45 -2.05,-11 -9.24,-24 -21.57,-39 -14.61,-20.6 -40.97,-35.2 -79.11,-43.73 l -26.12,-1.53 h -1.52 c -2.02,0 -7.59,0.1 -16.74,0.29 l -91.22,-0.29 v 79.66 h 101.88 c 26.15,8.5 39.51,24.5 40.15,48.1 v 12.7 c 1.63,15.8 -5.6,28.8 -21.56,38.9 -3.28,5.1 -13.01,8.3 -29.25,9.8 l -90.87,0.6 0.25,81.8 h 90.62 c 3.66,0.8 8.74,1.2 15.22,1.2 18.44,7.9 27.64,22.4 27.64,43.5 l -1.53,10.9 -2.97,7.6 h -1.55 c -8.11,11.8 -20.41,18.5 -36.81,20.1 l -91.82,-0.6 0.6,83.9 91.22,-0.3" /><path
         id="path30"
         style="fill:#211d1d;fill-opacity:1;fill-rule:nonzero;stroke:none"
         d="m 3246.75,10206.1 131.34,224.7 h 109.16 l -141.06,-241.4 v -194.04 h -99.15 z m -123.45,224.7 h 109.16 l 64.45,-110.4 -55.03,-92.4 -118.58,202.8" /><path
         id="path32"
         style="fill:#211d1d;fill-opacity:1;fill-rule:nonzero;stroke:none"
         d="m 3910.49,10161.7 97.57,267.9 h 94.29 l -158.76,-435.46 h -33.1 z m -18.58,-167.24 H 3860 l -159.03,436.04 h 94.22 l 96.72,-265.2 v -170.84" /><path
         id="path34"
         style="fill:#211d1d;fill-opacity:1;fill-rule:nonzero;stroke:none"
         d="m 4443.44,10075.3 v -80.23 h -204.32 v 80.23 z m -17.05,190.1 v -80.3 h -187.61 v 80.3 z m 16.11,165.1 v -80.3 h -204.31 v 80.3 z m -221.38,-436.04 h -99.07 v 436.94 h 99.07 v -436.94" /><path
         id="path36"
         style="fill:#211d1d;fill-opacity:1;fill-rule:nonzero;stroke:none"
         d="m 4829.58,10058.6 c -39.14,-40.9 -85.93,-62.32 -140.49,-64.14 v 78.74 c 28.19,1.4 52.3,15.1 72.35,41.1 9.91,12.7 17.55,26.7 22.82,41.9 l 83.91,-43.5 c -9.71,-19.4 -22.59,-37.5 -38.59,-54.1 z m -68.14,252.4 c -20.05,25.7 -44.16,39.3 -72.35,40.7 v 80 c 54.56,-1.8 101.35,-23.1 140.49,-63.9 19.87,-20.8 34.82,-43.8 45,-69 l -86.39,-42.6 c -5.03,20.3 -13.97,38.6 -26.75,54.8 z m -88.14,40.1 c -25.36,-3 -47.33,-16.4 -66.02,-40.1 -21.27,-27.2 -31.92,-60 -31.92,-98.5 0,-38.3 10.65,-71.1 31.92,-98.2 18.69,-24 40.66,-37.5 66.02,-40.5 v -79.06 c -53.73,2.03 -99.89,23.36 -138.39,63.86 -40.75,42.6 -61.11,94.1 -61.11,154.5 0,60.4 20.36,112 61.11,154.7 38.5,40.4 84.66,61.6 138.39,63.6 v -80.3" /><path
         id="path38"
         style="fill:#211d1d;fill-opacity:1;fill-rule:nonzero;stroke:none"
         d="m 5115.07,9995.36 h -99.19 v 337.84 h 99.19 z m 110.34,434.24 v -80.3 h -324.75 v 80.3 h 324.75" /><path
         id="path40"
         style="fill:#211d1d;fill-opacity:1;fill-rule:nonzero;stroke:none"
         d="m 5474.1,10073.2 c 28.2,1.4 52.31,15.1 72.37,41.1 21.31,27.1 31.92,59.9 31.92,98.2 0,38.5 -10.61,71.3 -31.92,98.5 -20.06,25.7 -44.17,39.3 -72.37,40.7 v 80 c 54.49,-1.8 101.32,-23.1 140.44,-63.9 40.74,-42.7 61.15,-94.3 61.15,-154.7 0,-60.4 -20.41,-111.9 -61.15,-154.5 -39.12,-40.9 -85.95,-62.32 -140.44,-64.14 z m -15.83,277.9 c -25.35,-3 -47.35,-16.4 -65.99,-40.1 -21.29,-27.2 -31.92,-60 -31.92,-98.5 0,-38.3 10.63,-71.1 31.92,-98.2 18.64,-24 40.64,-37.5 65.99,-40.5 v -79.06 c -53.68,2.03 -99.82,23.36 -138.39,63.86 -40.7,42.6 -61.08,94.1 -61.08,154.5 0,60.4 20.38,112 61.08,154.7 38.57,40.4 84.71,61.6 138.39,63.6 v -80.3" /><path
         id="path42"
         style="fill:#211d1d;fill-opacity:1;fill-rule:nonzero;stroke:none"
         d="m 6003.37,10190.6 c 7.75,-7.9 15.11,-19.4 22.23,-34.4 3.02,-3.2 5.65,-16.2 7.89,-38.9 l 3.09,-15.5 9.08,-48.1 c 2,-5 4.67,-14.8 7.88,-29.1 3.46,-5.3 9.67,-15 18.57,-28.95 l -103.65,-0.58 c -3.48,0 -9.65,12.33 -18.57,37.03 -1.81,3.1 -6.97,32 -15.53,86.7 -3.6,13 -11.93,23.3 -24.9,31 -12.14,4.3 -41.96,6.4 -89.43,6.4 v 79.1 h 79.37 c 31.01,10.9 46.53,31.4 46.53,61.4 v 7.6 c -6.87,32.6 -25.53,49.6 -55.91,50.8 h -69.99 v 77.5 h 69.99 c 58.53,0 101.01,-15.9 127.42,-47.7 18.57,-27.2 27.97,-55.7 27.97,-85.5 v -5.8 c 0,-34 -9.87,-63.9 -29.56,-89.7 -3.66,-4.8 -7.81,-9.3 -12.48,-13.3 z m -199.15,-196.14 h -99.12 v 436.94 h 99.12 v -436.94" /><path
         id="path44"
         style="fill:#211d1d;fill-opacity:1;fill-rule:nonzero;stroke:none"
         d="m 6282.46,10432.6 c 58.61,0 101.1,-16.5 127.41,-49.5 18.69,-28.4 28.03,-58 28.03,-88.8 v -6.1 c 0,-35.5 -9.89,-66.6 -29.57,-93.4 -26.33,-35.6 -78.63,-52.2 -156.83,-49.5 h -38.95 v 82.1 h 79.4 c 30.98,11.3 46.5,32.6 46.5,63.8 v 7.9 c -6.92,34.1 -25.53,51.7 -55.99,52.9 h -69.91 v 80.6 z m -85.69,-438.14 h -99.2 v 436.94 h 99.2 v -436.94" /><path
         id="path46"
         style="fill:#211d1d;fill-opacity:1;fill-rule:nonzero;stroke:none"
         d="m 6685.01,10073.2 c 28.19,1.4 52.34,15.1 72.35,41.1 21.31,27.1 32.01,59.9 32.01,98.2 0,38.5 -10.7,71.3 -32.01,98.5 -20.01,25.7 -44.16,39.3 -72.35,40.7 v 80 c 54.55,-1.8 101.35,-23.1 140.54,-63.9 40.7,-42.7 61.12,-94.3 61.12,-154.7 0,-60.4 -20.42,-111.9 -61.12,-154.5 -39.19,-40.9 -85.99,-62.32 -140.54,-64.14 z m -15.76,277.9 c -25.38,-3 -47.36,-16.4 -66.05,-40.1 -21.22,-27.2 -31.88,-60 -31.88,-98.5 0,-38.3 10.66,-71.1 31.88,-98.2 18.69,-24 40.67,-37.5 66.05,-40.5 v -79.06 c -53.75,2.03 -99.88,23.36 -138.36,63.86 -40.77,42.6 -61.15,94.1 -61.15,154.5 0,60.4 20.38,112 61.15,154.7 38.48,40.4 84.61,61.6 138.36,63.6 v -80.3" /><path
         id="path48"
         style="fill:#211d1d;fill-opacity:1;fill-rule:nonzero;stroke:none"
         d="m 7214.36,10190.6 c 7.73,-7.9 15.14,-19.4 22.16,-34.4 3.11,-3.2 5.7,-16.2 7.99,-38.9 l 3.01,-15.5 9.08,-48.1 c 2.03,-5 4.66,-14.8 7.89,-29.1 3.43,-5.3 9.66,-15 18.56,-28.95 l -103.67,-0.58 c -3.47,0 -9.63,12.33 -18.51,37.03 -1.86,3.1 -7.02,32 -15.51,86.7 -3.71,13 -12.01,23.3 -24.97,31 -12.15,4.3 -41.99,6.4 -89.39,6.4 v 79.1 h 79.4 c 30.97,10.9 46.5,31.4 46.5,61.4 v 7.6 c -6.9,32.6 -25.54,49.6 -55.96,50.8 H 7031 v 77.5 h 69.94 c 58.54,0 101.08,-15.9 127.41,-47.7 18.66,-27.2 27.99,-55.7 27.99,-85.5 v -5.8 c 0,-34 -9.86,-63.9 -29.52,-89.7 -3.7,-4.8 -7.79,-9.3 -12.46,-13.3 z m -199.17,-196.14 h -99.14 v 436.94 h 99.14 v -436.94" /><path
         id="path50"
         style="fill:#211d1d;fill-opacity:1;fill-rule:nonzero;stroke:none"
         d="m 7522.06,9995.36 h -99.15 v 337.84 h 99.15 z m 110.34,434.24 v -80.3 h -324.7 v 80.3 h 324.7" /><path
         id="path52"
         style="fill:#211d1d;fill-opacity:1;fill-rule:nonzero;stroke:none"
         d="m 7905.42,10430.5 154.16,-436.04 h -112.51 l -29.19,92.74 h -120.71 l 23.37,80.6 h 74.22 v 1.5 l -45.02,160.5 h -1.51 l -94.2,-335.34 h -88.22 v 63.24 l 126.78,372.8 h 112.83" /><path
         id="path54"
         style="fill:#211d1d;fill-opacity:1;fill-rule:nonzero;stroke:none"
         d="m 8404.96,10075 v -80.26 h -204.37 v 80.26 z m -225.08,-80.54 h -99.07 v 436.94 h 99.07 v -436.94" /><path
         id="path56"
         style="fill:#211d1d;fill-opacity:1;fill-rule:nonzero;stroke:none"
         d="m 8537.11,10074.7 v -80.24 h -99.05 v 80.24 h 99.05" /><path
         id="path58"
         style="fill:#211d1d;fill-opacity:1;fill-rule:nonzero;stroke:none"
         d="m 8923.65,10058.6 c -39.16,-40.9 -85.98,-62.32 -140.47,-64.14 v 78.74 c 28.16,1.4 52.29,15.1 72.32,41.1 9.96,12.7 17.59,26.7 22.87,41.9 l 83.82,-43.5 c -9.71,-19.4 -22.55,-37.5 -38.54,-54.1 z m -68.15,252.4 c -20.03,25.7 -44.16,39.3 -72.32,40.7 v 80 c 54.49,-1.8 101.31,-23.1 140.47,-63.9 19.87,-20.8 34.88,-43.8 44.98,-69 l -86.34,-42.6 c -5.08,20.3 -13.97,38.6 -26.79,54.8 z m -88.14,40.1 c -25.37,-3 -47.35,-16.4 -66,-40.1 -21.28,-27.2 -31.92,-60 -31.92,-98.5 0,-38.3 10.64,-71.1 31.92,-98.2 18.65,-24 40.63,-37.5 66,-40.5 v -79.06 c -53.76,2.03 -99.86,23.36 -138.36,63.86 -40.73,42.6 -61.13,94.1 -61.13,154.5 0,60.4 20.4,112 61.13,154.7 38.5,40.4 84.6,61.6 138.36,63.6 v -80.3" /><path
         id="path60"
         style="fill:#211d1d;fill-opacity:1;fill-rule:nonzero;stroke:none"
         d="m 9210.91,10073.2 c 28.17,1.4 52.28,15.1 72.4,41.1 21.25,27.1 31.94,59.9 31.94,98.2 0,38.5 -10.69,71.3 -31.94,98.5 -20.12,25.7 -44.23,39.3 -72.4,40.7 v 80 c 54.51,-1.8 101.35,-23.1 140.5,-63.9 40.68,-42.7 61.09,-94.3 61.09,-154.7 0,-60.4 -20.41,-111.9 -61.09,-154.5 -39.15,-40.9 -85.99,-62.32 -140.5,-64.14 z m -15.78,277.9 c -25.36,-3 -47.39,-16.4 -66.01,-40.1 -21.31,-27.2 -31.93,-60 -31.93,-98.5 0,-38.3 10.62,-71.1 31.93,-98.2 18.62,-24 40.65,-37.5 66.01,-40.5 v -79.06 c -53.75,2.03 -99.86,23.36 -138.41,63.86 -40.74,42.6 -61.07,94.1 -61.07,154.5 0,60.4 20.33,112 61.07,154.7 38.55,40.4 84.66,61.6 138.41,63.6 v -80.3" /><path
         id="path62"
         style="fill:#211d1d;fill-opacity:1;fill-rule:nonzero;stroke:none"
         d="m 9847.57,10238.9 99.12,165.4 v -409.84 h -99.12 z m -139.85,-55.6 147.15,247.2 h 94.26 l -241.41,-405.7 z m -23.12,-158.7 -241.46,405.6 h 94.28 L 9684.6,10183 Z m -143.55,-30.14 h -99.08 v 409.84 l 99.08,-165.4 v -244.44" /><path
         id="path64"
         style="fill:#231f20;fill-opacity:1;fill-rule:nonzero;stroke:none"
         d="M 3219.37,28.3008 C 3202.37,10.5 3181.99,1.19922 3158.28,0.402344 V 34.6016 c 12.27,0.5976 22.76,6.5976 31.47,17.8984 4.32,5.5 7.63,11.6016 9.93,18.1992 l 36.49,-18.8984 c -4.23,-8.5 -9.83,-16.3008 -16.8,-23.5 z M 3189.75,138 c -8.71,11.199 -19.2,17.102 -31.47,17.801 V 190.5 c 23.71,-0.801 44.09,-10 61.09,-27.699 8.65,-9.102 15.16,-19.102 19.59,-30.102 l -37.57,-18.5 c -2.21,8.903 -6.08,16.801 -11.64,23.801 z m -38.35,17.5 c -11.02,-1.301 -20.58,-7.199 -28.69,-17.5 -9.26,-11.801 -13.89,-26.098 -13.89,-42.8008 0,-16.6992 4.63,-30.8984 13.89,-42.6992 8.11,-10.3984 17.67,-16.3008 28.69,-17.6016 V 0.5 c -23.36,0.89844 -43.42,10.1016 -60.18,27.8008 -17.7,18.5 -26.57,40.8984 -26.57,67.1015 0,26.2967 8.87,48.7967 26.57,67.3987 16.76,17.5 36.82,26.699 60.18,27.601 V 155.5" /><path
         id="path66"
         style="fill:#231f20;fill-opacity:1;fill-rule:nonzero;stroke:none"
         d="m 3380.42,85.6992 c 3.36,-3.5 6.58,-8.5 9.66,-15 1.32,-1.3984 2.46,-7 3.46,-16.8984 l 1.3,-6.6992 3.97,-21 c 0.89,-2.1016 2.03,-6.4024 3.43,-12.6016 1.51,-2.3008 4.19,-6.5 8.07,-12.601562 l -45.08,-0.296875 c -1.51,0 -4.19,5.398437 -8.07,16.199237 -0.8,1.3008 -3.06,13.8008 -6.76,37.6992 -1.58,5.6016 -5.2,10.1016 -10.84,13.4023 -5.3,1.8985 -18.25,2.7969 -38.86,2.7969 v 34.4028 h 34.5 c 13.5,4.796 20.23,13.699 20.23,26.699 v 3.301 c -3.01,14.199 -11.11,21.597 -24.34,22.097 h -30.39 v 33.699 h 30.39 c 25.49,0 43.96,-6.898 55.41,-20.699 8.12,-11.898 12.19,-24.199 12.19,-37.199 v -2.5 c 0,-14.801 -4.3,-27.801 -12.83,-39 -1.6,-2.0977 -3.41,-4.1016 -5.44,-5.8008 z M 3293.81,0.402344 h -43.12 V 190.402 h 43.12 V 0.402344" /><path
         id="path68"
         style="fill:#231f20;fill-opacity:1;fill-rule:nonzero;stroke:none"
         d="M 3561.18,35.5 V 0.601563 h -88.86 V 35.5 Z m -7.4,82.699 V 83.3008 h -81.6 v 34.8982 z m 7.01,71.801 v -34.898 h -88.87 V 190 Z M 3464.51,0.402344 H 3421.4 V 190.402 h 43.11 V 0.402344" /><path
         id="path70"
         style="fill:#231f20;fill-opacity:1;fill-rule:nonzero;stroke:none"
         d="M 3678.59,190 3745.65,0.402344 h -48.94 L 3684.03,40.6992 h -52.51 l 10.19,35 h 32.27 v 0.6992 l -19.58,69.8006 h -0.66 l -41,-145.796656 h -38.35 V 27.9023 L 3629.54,190 h 49.05" /><path
         id="path72"
         style="fill:#231f20;fill-opacity:1;fill-rule:nonzero;stroke:none"
         d="m 3847.73,0.800781 h -43.12 V 147.699 h 43.12 z M 3895.74,189.602 v -34.903 h -141.25 v 34.903 h 141.25" /><path
         id="path74"
         style="fill:#231f20;fill-opacity:1;fill-rule:nonzero;stroke:none"
         d="M 4050.04,35.5 V 0.601563 h -88.87 V 35.5 Z m -7.41,82.699 V 83.3008 h -81.59 v 34.8982 z m 7.01,71.801 v -34.898 h -88.87 V 190 Z M 3953.37,0.402344 h -43.12 V 190.402 h 43.12 V 0.402344" /><path
         id="path76"
         style="fill:#231f20;fill-opacity:1;fill-rule:nonzero;stroke:none"
         d="m 4167.99,132.902 c -3.01,14.797 -11.12,22.297 -24.35,22.598 l -30.4,0.398 v 35 h 30.4 c 25.47,0 43.95,-7.199 55.42,-21.496 8.1,-12.402 12.16,-25.203 12.16,-38.601 V 60.6992 C 4211.22,47.3008 4207.16,34.4023 4199.06,22 4187.59,7.69922 4169.11,0.5 4143.64,0.5 h -30.4 v 35 l 30.4,0.5 c 13.23,0.1992 21.34,7.6992 24.35,22.6016 z M 4106.35,0.402344 h -43.11 V 190.402 h 43.11 V 0.402344" /><path
         id="path78"
         style="fill:#231f20;fill-opacity:1;fill-rule:nonzero;stroke:none"
         d="m 4344.09,190.402 h 0.54 c 30.5,0 49.76,-10.8 57.79,-32.5 1.84,-4.3 2.77,-9.3 2.77,-15 v -3.3 c 0.08,-4.801 -1.05,-8.903 -3.44,-12.301 -2.81,-8.301 -7.49,-15 -14,-20.199 l -6.1,-3.5 -3.17,-1 c 3.45,-1.903 6.26,-3.3012 8.46,-4.4028 13.4,-8 21.03,-19.8984 22.88,-35.8008 0.44,-1.7968 0.66,-3.7968 0.66,-6.1992 -0.7,-11.3008 -1.8,-17.8008 -3.3,-19.5976 -0.89,-4.8008 -4.02,-10.4024 -9.38,-16.9024 -6.35,-9 -17.82,-15.39842 -34.41,-19.097637 L 4352.03,0 h -0.66 c -0.88,0 -3.3,0 -7.28,0.101563 L 4304.42,0 v 34.6016 h 44.31 c 11.37,3.6992 17.18,10.6992 17.46,20.8984 v 5.6016 c 0.71,6.8007 -2.44,12.5 -9.38,16.8984 -1.42,2.1992 -5.65,3.6016 -12.72,4.1992 l -39.52,0.3008 0.11,35.602 h 39.41 c 1.59,0.296 3.81,0.5 6.62,0.5 8.02,3.398 12.02,9.699 12.02,18.898 l -0.66,4.801 -1.29,3.301 h -0.68 c -3.52,5.097 -8.87,8 -16.01,8.699 l -39.93,-0.301 0.26,36.5 39.67,-0.098" /><path
         id="path80"
         style="fill:#231f20;fill-opacity:1;fill-rule:nonzero;stroke:none"
         d="m 4476.72,92.3984 57.13,97.7036 h 47.47 L 4519.97,85.1016 V 0.800781 h -43.12 z m -53.69,97.7036 h 47.48 l 28.03,-48 -23.94,-40.2 -51.57,88.2" /><path
         id="path82"
         style="fill:#231f20;fill-opacity:1;fill-rule:nonzero;stroke:none"
         d="m 4765.4,73.1016 42.44,116.5004 h 41 L 4779.79,0.199219 h -14.39 z m -8.08,-72.699256 h -13.88 L 4674.27,190 h 40.98 L 4757.32,74.6992 V 0.402344" /><path
         id="path84"
         style="fill:#231f20;fill-opacity:1;fill-rule:nonzero;stroke:none"
         d="M 4997.19,35.5 V 0.601563 h -88.86 V 35.5 Z m -7.42,82.699 V 83.3008 h -81.59 v 34.8982 z m 7.01,71.801 v -34.898 h -88.86 V 190 Z M 4900.49,0.402344 h -43.08 V 190.402 h 43.08 V 0.402344" /><path
         id="path86"
         style="fill:#231f20;fill-opacity:1;fill-rule:nonzero;stroke:none"
         d="M 5165.13,28.3008 C 5148.11,10.5 5127.76,1.19922 5104.03,0.402344 V 34.6016 c 12.25,0.5976 22.74,6.5976 31.46,17.8984 4.32,5.5 7.64,11.6016 9.93,18.1992 l 36.5,-18.8984 c -4.23,-8.5 -9.84,-16.3008 -16.79,-23.5 z M 5135.49,138 c -8.72,11.199 -19.21,17.102 -31.46,17.801 V 190.5 c 23.73,-0.801 44.08,-10 61.1,-27.699 8.64,-9.102 15.15,-19.102 19.56,-30.102 l -37.56,-18.5 c -2.18,8.903 -6.07,16.801 -11.64,23.801 z m -38.33,17.5 c -11.02,-1.301 -20.59,-7.199 -28.72,-17.5 -9.25,-11.801 -13.88,-26.098 -13.88,-42.8008 0,-16.6992 4.63,-30.8984 13.88,-42.6992 8.13,-10.3984 17.7,-16.3008 28.72,-17.6016 V 0.5 c -23.37,0.89844 -43.44,10.1016 -60.19,27.8008 -17.73,18.5 -26.57,40.8984 -26.57,67.1015 0,26.2967 8.84,48.7967 26.57,67.3987 16.75,17.5 36.82,26.699 60.19,27.601 V 155.5" /><path
         id="path88"
         style="fill:#231f20;fill-opacity:1;fill-rule:nonzero;stroke:none"
         d="m 5289.3,0.800781 h -43.14 V 147.699 h 43.14 z M 5337.28,189.602 v -34.903 h -141.24 v 34.903 h 141.24" /><path
         id="path90"
         style="fill:#231f20;fill-opacity:1;fill-rule:nonzero;stroke:none"
         d="m 5445.44,34.6016 c 12.27,0.5976 22.75,6.5976 31.48,17.8984 9.27,11.8008 13.89,26 13.89,42.6992 0,16.7028 -4.62,30.9998 -13.89,42.8008 -8.73,11.199 -19.21,17.102 -31.48,17.801 V 190.5 c 23.71,-0.801 44.08,-10 61.09,-27.699 17.71,-18.602 26.59,-41.102 26.59,-67.3987 0,-26.2031 -8.88,-48.6015 -26.59,-67.1015 C 5489.52,10.5 5469.15,1.19922 5445.44,0.402344 Z M 5438.56,155.5 c -11.03,-1.301 -20.59,-7.199 -28.7,-17.5 -9.26,-11.801 -13.88,-26.098 -13.88,-42.8008 0,-16.6992 4.62,-30.8984 13.88,-42.6992 8.11,-10.3984 17.67,-16.3008 28.7,-17.6016 V 0.5 c -23.34,0.89844 -43.42,10.1016 -60.2,27.8008 -17.69,18.5 -26.56,40.8984 -26.56,67.1015 0,26.2967 8.87,48.7967 26.56,67.3987 16.78,17.5 36.86,26.699 60.2,27.601 V 155.5" /><path
         id="path92"
         style="fill:#231f20;fill-opacity:1;fill-rule:nonzero;stroke:none"
         d="m 5675.63,85.6992 c 3.38,-3.5 6.58,-8.5 9.67,-15 1.32,-1.3984 2.46,-7 3.44,-16.8984 l 1.34,-6.6992 3.95,-21 c 0.87,-2.1016 2.03,-6.4024 3.43,-12.6016 1.49,-2.3008 4.21,-6.5 8.07,-12.601562 l -45.08,-0.296875 c -1.52,0 -4.2,5.398437 -8.08,16.199237 -0.78,1.3008 -3.03,13.8008 -6.75,37.6992 -1.57,5.6016 -5.19,10.1016 -10.83,13.4023 -5.27,1.8985 -18.24,2.7969 -38.89,2.7969 v 34.4028 h 34.52 c 13.48,4.796 20.23,13.699 20.23,26.699 v 3.301 c -2.99,14.199 -11.1,21.597 -24.32,22.097 h -30.43 v 33.699 h 30.43 c 25.46,0 43.94,-6.898 55.42,-20.699 8.08,-11.898 12.16,-24.199 12.16,-37.199 v -2.5 c 0,-14.801 -4.29,-27.801 -12.85,-39 -1.58,-2.0977 -3.4,-4.1016 -5.43,-5.8008 z M 5589.02,0.402344 h -43.11 V 190.402 h 43.11 V 0.402344" /><path
         id="path94"
         style="fill:#231f20;fill-opacity:1;fill-rule:nonzero;stroke:none"
         d="m 5797.02,190.898 c 25.48,0 43.96,-7.199 55.41,-21.496 8.12,-12.402 12.18,-25.203 12.18,-38.601 v -2.699 c 0,-15.403 -4.29,-28.9028 -12.85,-40.602 C 5840.31,72 5817.56,64.8008 5783.55,66 h -16.94 v 35.699 h 34.53 c 13.47,4.903 20.23,14.199 20.23,27.703 v 3.5 c -3.02,14.797 -11.11,22.5 -24.35,22.996 h -30.41 v 35 z M 5759.75,0.402344 h -43.14 V 190.402 h 43.14 V 0.402344" /><path
         id="path96"
         style="fill:#231f20;fill-opacity:1;fill-rule:nonzero;stroke:none"
         d="m 5972.09,34.6016 c 12.26,0.5976 22.76,6.5976 31.47,17.8984 9.27,11.8008 13.93,26 13.93,42.6992 0,16.7028 -4.66,30.9998 -13.93,42.8008 -8.71,11.199 -19.21,17.102 -31.47,17.801 V 190.5 c 23.73,-0.801 44.09,-10 61.13,-27.699 17.7,-18.602 26.57,-41.102 26.57,-67.3987 0,-26.2031 -8.87,-48.6015 -26.57,-67.1015 C 6016.18,10.5 5995.82,1.19922 5972.09,0.402344 Z M 5965.24,155.5 c -11.04,-1.301 -20.61,-7.199 -28.73,-17.5 -9.23,-11.801 -13.87,-26.098 -13.87,-42.8008 0,-16.6992 4.64,-30.8984 13.87,-42.6992 8.12,-10.3984 17.69,-16.3008 28.73,-17.6016 V 0.5 c -23.38,0.89844 -43.44,10.1016 -60.18,27.8008 -17.73,18.5 -26.6,40.8984 -26.6,67.1015 0,26.2967 8.87,48.7967 26.6,67.3987 16.74,17.5 36.8,26.699 60.18,27.601 V 155.5" /><path
         id="path98"
         style="fill:#231f20;fill-opacity:1;fill-rule:nonzero;stroke:none"
         d="m 6202.32,85.6992 c 3.37,-3.5 6.58,-8.5 9.64,-15 1.35,-1.3984 2.48,-7 3.47,-16.8984 l 1.31,-6.6992 3.95,-21 c 0.88,-2.1016 2.03,-6.4024 3.43,-12.6016 1.49,-2.3008 4.21,-6.5 8.07,-12.601562 L 6187.1,0.601563 c -1.51,0 -4.18,5.398437 -8.04,16.199237 -0.81,1.3008 -3.06,13.8008 -6.75,37.6992 -1.62,5.6016 -5.23,10.1016 -10.86,13.4023 -5.29,1.8985 -18.26,2.7969 -38.88,2.7969 v 34.4028 h 34.52 c 13.48,4.796 20.24,13.699 20.24,26.699 v 3.301 c -3.01,14.199 -11.11,21.597 -24.34,22.097 h -30.42 v 33.699 h 30.42 c 25.45,0 43.96,-6.898 55.41,-20.699 8.12,-11.898 12.17,-24.199 12.17,-37.199 v -2.5 c 0,-14.801 -4.29,-27.801 -12.83,-39 -1.61,-2.0977 -3.4,-4.1016 -5.42,-5.8008 z M 6115.69,0.402344 h -43.11 V 190.402 h 43.11 V 0.402344" /><path
         id="path100"
         style="fill:#231f20;fill-opacity:1;fill-rule:nonzero;stroke:none"
         d="m 6336.14,0.800781 h -43.12 V 147.699 h 43.12 z M 6384.13,189.602 v -34.903 h -141.21 v 34.903 h 141.21" /><path
         id="path102"
         style="fill:#231f20;fill-opacity:1;fill-rule:nonzero;stroke:none"
         d="M 6502.88,190 6569.93,0.402344 h -48.95 L 6508.29,40.6992 h -52.49 l 10.16,35 h 32.28 v 0.6992 l -19.58,69.8006 H 6478 L 6437.03,0.402344 h -38.37 V 27.9023 L 6453.8,190 h 49.08" /><path
         id="path104"
         style="fill:#231f20;fill-opacity:1;fill-rule:nonzero;stroke:none"
         d="M 6720.13,35.4023 V 0.5 h -88.88 V 35.4023 Z M 6622.24,0.402344 h -43.08 V 190.402 h 43.08 V 0.402344" /><path
         id="path106"
         style="fill:#231f20;fill-opacity:1;fill-rule:nonzero;stroke:none"
         d="M 6777.61,35.3008 V 0.402344 h -43.08 V 35.3008 h 43.08" /><path
         id="path108"
         style="fill:#231f20;fill-opacity:1;fill-rule:nonzero;stroke:none"
         d="M 6945.72,28.3008 C 6928.69,10.5 6908.33,1.19922 6884.62,0.402344 V 34.6016 c 12.26,0.5976 22.75,6.5976 31.46,17.8984 4.34,5.5 7.66,11.6016 9.95,18.1992 l 36.46,-18.8984 c -4.23,-8.5 -9.81,-16.3008 -16.77,-23.5 z M 6916.08,138 c -8.71,11.199 -19.2,17.102 -31.46,17.801 V 190.5 c 23.71,-0.801 44.07,-10 61.1,-27.699 8.64,-9.102 15.17,-19.102 19.56,-30.102 l -37.55,-18.5 c -2.21,8.903 -6.07,16.801 -11.65,23.801 z m -38.33,17.5 c -11.04,-1.301 -20.6,-7.199 -28.7,-17.5 -9.26,-11.801 -13.89,-26.098 -13.89,-42.8008 0,-16.6992 4.63,-30.8984 13.89,-42.6992 8.1,-10.3984 17.66,-16.3008 28.7,-17.6016 V 0.5 c -23.38,0.89844 -43.44,10.1016 -60.18,27.8008 -17.71,18.5 -26.59,40.8984 -26.59,67.1015 0,26.2967 8.88,48.7967 26.59,67.3987 16.74,17.5 36.8,26.699 60.18,27.601 V 155.5" /><path
         id="path110"
         style="fill:#231f20;fill-opacity:1;fill-rule:nonzero;stroke:none"
         d="m 7070.66,34.6016 c 12.25,0.5976 22.73,6.5976 31.48,17.8984 9.24,11.8008 13.9,26 13.9,42.6992 0,16.7028 -4.66,30.9998 -13.9,42.8008 -8.75,11.199 -19.23,17.102 -31.48,17.801 V 190.5 c 23.7,-0.801 44.07,-10 61.1,-27.699 17.7,-18.602 26.57,-41.102 26.57,-67.3987 0,-26.2031 -8.87,-48.6015 -26.57,-67.1015 C 7114.73,10.5 7094.36,1.19922 7070.66,0.402344 Z M 7063.79,155.5 c -11.02,-1.301 -20.61,-7.199 -28.71,-17.5 -9.26,-11.801 -13.88,-26.098 -13.88,-42.8008 0,-16.6992 4.62,-30.8984 13.88,-42.6992 8.1,-10.3984 17.69,-16.3008 28.71,-17.6016 V 0.5 c -23.37,0.89844 -43.42,10.1016 -60.19,27.8008 -17.73,18.5 -26.56,40.8984 -26.56,67.1015 0,26.2967 8.83,48.7967 26.56,67.3987 16.77,17.5 36.82,26.699 60.19,27.601 V 155.5" /><path
         id="path112"
         style="fill:#231f20;fill-opacity:1;fill-rule:nonzero;stroke:none"
         d="m 7347.55,106.699 43.12,71.903 V 0.402344 h -43.12 z m -60.82,-24.199 64,107.5 h 40.99 L 7286.73,13.6016 Z m -10.06,-69 -105.01,176.398 h 41 L 7276.67,82.3984 Z M 7214.24,0.402344 h -43.09 V 178.602 l 43.09,-71.903 V 0.402344" /><path
         id="path114"
         style="fill:#211d1d;fill-opacity:1;fill-rule:nonzero;stroke:none"
         d="m 160.789,9680.66 c 17.32,0.89 32.137,9.29 44.492,25.27 13.074,16.65 19.621,36.8 19.621,60.34 0,23.68 -6.547,43.86 -19.621,60.55 -12.355,15.83 -27.172,24.2 -44.492,25.05 v 49.16 c 33.508,-1.1 62.32,-14.2 86.356,-39.24 25.039,-26.31 37.582,-58 37.582,-95.15 0,-37.14 -12.543,-68.76 -37.582,-94.93 -24.036,-25.19 -52.848,-38.33 -86.356,-39.44 z m -9.703,170.85 c -15.578,-1.89 -29.106,-10.1 -40.563,-24.69 -13.0816,-16.69 -19.6324,-36.87 -19.6324,-60.55 0,-23.54 6.5508,-43.69 19.6324,-60.34 11.457,-14.73 24.985,-23.04 40.563,-24.89 v -48.59 c -33.02,1.25 -61.379,14.34 -85.0547,39.26 -25.0469,26.17 -37.5704,57.79 -37.5704,94.93 0,37.15 12.5235,68.84 37.5704,95.15 23.6757,24.8 52.0347,37.83 85.0547,39.08 v -49.36" /><path
         id="path116"
         style="fill:#211d1d;fill-opacity:1;fill-rule:nonzero;stroke:none"
         d="m 598.262,9752.82 c 4.711,-4.87 9.261,-11.91 13.629,-21.11 1.886,-2.01 3.496,-9.97 4.867,-23.94 l 1.871,-9.52 5.617,-29.53 c 1.238,-3.13 2.844,-9.11 4.84,-17.95 2.137,-3.24 5.93,-9.16 11.422,-17.77 l -63.762,-0.35 c -2.074,0 -5.918,7.57 -11.394,22.78 -1.122,1.88 -4.278,19.64 -9.532,53.28 -2.226,7.98 -7.367,14.31 -15.316,19.06 -7.481,2.61 -25.762,3.94 -54.953,3.94 v 48.6 h 48.785 c 19.062,6.72 28.578,19.29 28.578,37.76 v 4.66 c -4.215,20.07 -15.707,30.47 -34.402,31.23 h -42.961 v 47.65 h 42.961 c 36.035,0 62.148,-9.79 78.336,-29.34 11.457,-16.72 17.179,-34.23 17.179,-52.54 v -3.53 c 0,-20.95 -6.023,-39.33 -18.109,-55.14 -2.242,-3 -4.801,-5.76 -7.656,-8.24 z M 475.844,9632.27 h -60.957 v 268.6 h 60.957 v -268.6" /><path
         id="path118"
         style="fill:#211d1d;fill-opacity:1;fill-rule:nonzero;stroke:none"
         d="m 829.188,9632.27 h -60.95 v 268.6 h 60.95 v -268.6" /><path
         id="path120"
         style="fill:#211d1d;fill-opacity:1;fill-rule:nonzero;stroke:none"
         d="m 1136.31,9826.82 c -12.35,15.83 -27.15,24.2 -44.46,25.05 v 49.16 c 33.51,-1.1 62.27,-14.2 86.34,-39.24 12.22,-12.84 21.4,-26.98 27.67,-42.42 l -53.07,-26.16 c -3.09,12.45 -8.61,23.66 -16.48,33.61 z m 79.46,-63.33 c -0.74,-35.78 -13.29,-66.37 -37.58,-91.78 -24.07,-25.19 -52.83,-38.33 -86.34,-39.44 v 48.39 c 17.31,0.89 32.11,9.29 44.46,25.27 2.12,2.59 4.07,5.33 5.78,8.18 h -50.63 v 49.38 z m -133.64,88.02 c -15.6,-1.89 -29.1,-10.1 -40.56,-24.69 -13.1,-16.69 -19.62,-36.87 -19.62,-60.55 0,-23.54 6.52,-43.69 19.62,-60.34 11.46,-14.73 24.96,-23.04 40.56,-24.89 v -48.59 c -33.03,1.25 -61.37,14.34 -85.064,39.26 -25.039,26.17 -37.523,57.79 -37.523,94.93 0,37.15 12.484,68.84 37.523,95.15 23.694,24.8 52.034,37.83 85.064,39.08 v -49.36" /><path
         id="path122"
         style="fill:#211d1d;fill-opacity:1;fill-rule:nonzero;stroke:none"
         d="m 1407.45,9632.27 h -60.95 v 268.6 h 60.95 v -268.6" /><path
         id="path124"
         style="fill:#211d1d;fill-opacity:1;fill-rule:nonzero;stroke:none"
         d="m 1695.31,9900.29 h 60.93 v -251.95 l -60.93,101.67 z m 2.44,-267.84 -159.28,267.68 h 57.96 l 159.41,-267.86 z m -99.04,-0.18 h -60.96 v 251.96 l 60.96,-101.69 v -150.27" /><path
         id="path126"
         style="fill:#211d1d;fill-opacity:1;fill-rule:nonzero;stroke:none"
         d="m 2035.58,9900.29 94.78,-268.02 h -69.18 l -17.91,57.02 h -74.21 l 14.36,49.51 h 45.62 v 0.93 l -27.66,98.71 h -0.92 l -57.95,-206.17 h -54.21 v 38.87 l 77.92,229.15 h 69.36" /><path
         id="path128"
         style="fill:#211d1d;fill-opacity:1;fill-rule:nonzero;stroke:none"
         d="m 2454.75,9681.79 v -49.34 h -125.61 v 49.34 z m -138.36,-49.52 h -60.91 v 268.6 h 60.91 v -268.6" /><path
         id="path130"
         style="fill:#211d1d;fill-opacity:1;fill-rule:nonzero;stroke:none"
         d="m 2998.19,9798.8 v -49.34 H 2882.9 v 49.34 z m 9.91,101.49 v -49.35 h -125.58 v 49.35 z m -136.06,-268.02 h -60.92 v 268.6 h 60.92 v -268.6" /><path
         id="path132"
         style="fill:#211d1d;fill-opacity:1;fill-rule:nonzero;stroke:none"
         d="m 3321.65,9752.82 c 4.73,-4.87 9.27,-11.91 13.63,-21.11 1.88,-2.01 3.47,-9.97 4.86,-23.94 l 1.88,-9.52 5.6,-29.53 c 1.25,-3.13 2.88,-9.11 4.86,-17.95 2.1,-3.24 5.92,-9.16 11.42,-17.77 l -63.73,-0.35 c -2.12,0 -5.93,7.57 -11.43,22.78 -1.15,1.88 -4.3,19.64 -9.52,53.28 -2.24,7.98 -7.34,14.31 -15.33,19.06 -7.48,2.61 -25.77,3.94 -54.98,3.94 v 48.6 h 48.82 c 19.06,6.72 28.57,19.29 28.57,37.76 v 4.66 c -4.23,20.07 -15.67,30.47 -34.4,31.23 h -42.99 v 47.65 h 42.99 c 36.03,0 62.17,-9.79 78.33,-29.34 11.44,-16.72 17.22,-34.23 17.22,-52.54 v -3.53 c 0,-20.95 -6.05,-39.33 -18.14,-55.14 -2.26,-3 -4.78,-5.76 -7.66,-8.24 z M 3199.2,9632.27 h -60.9 v 268.6 h 60.9 v -268.6" /><path
         id="path134"
         style="fill:#211d1d;fill-opacity:1;fill-rule:nonzero;stroke:none"
         d="m 3689.19,9681.98 v -49.33 H 3563.6 v 49.33 z m -10.48,116.82 v -49.34 h -115.3 v 49.34 z m 9.93,101.49 v -49.35 h -125.63 v 49.35 z m -136.08,-268.02 h -60.93 v 268.6 h 60.93 v -268.6" /><path
         id="path136"
         style="fill:#211d1d;fill-opacity:1;fill-rule:nonzero;stroke:none"
         d="m 4017.48,9681.98 v -49.33 h -125.57 v 49.33 z m -10.46,116.82 v -49.34 h -115.33 v 49.34 z m 9.89,101.49 v -49.35 h -125.57 v 49.35 z m -136.05,-268.02 h -60.92 v 268.6 h 60.92 v -268.6" /><path
         id="path138"
         style="fill:#211d1d;fill-opacity:1;fill-rule:nonzero;stroke:none"
         d="m 4501.73,9735.07 59.99,164.65 h 57.94 l -97.57,-267.62 h -20.36 z m -11.41,-102.8 h -19.62 l -97.74,268.02 h 57.94 l 59.42,-163 v -105.02" /><path
         id="path140"
         style="fill:#211d1d;fill-opacity:1;fill-rule:nonzero;stroke:none"
         d="m 4941.4,9681.98 v -49.33 h -125.58 v 49.33 z m -10.42,116.82 v -49.34 h -115.35 v 49.34 z m 9.91,101.49 v -49.35 h -125.67 v 49.35 z m -136.06,-268.02 h -60.95 v 268.6 h 60.95 v -268.6" /><path
         id="path142"
         style="fill:#211d1d;fill-opacity:1;fill-rule:nonzero;stroke:none"
         d="m 5290.84,9671.71 c -24.05,-25.19 -52.85,-38.33 -86.35,-39.44 v 48.39 c 17.35,0.89 32.19,9.29 44.53,25.27 6.07,7.83 10.73,16.42 13.99,25.78 l 51.57,-26.74 c -5.98,-11.95 -13.88,-23.04 -23.74,-33.26 z m -41.82,155.11 c -12.34,15.83 -27.18,24.2 -44.53,25.05 v 49.16 c 33.5,-1.1 62.3,-14.2 86.35,-39.24 12.2,-12.84 21.4,-26.98 27.66,-42.42 l -53.07,-26.16 c -3.13,12.45 -8.6,23.66 -16.41,33.61 z m -54.21,24.69 c -15.58,-1.89 -29.14,-10.1 -40.64,-24.69 -13.03,-16.69 -19.57,-36.87 -19.57,-60.55 0,-23.54 6.54,-43.69 19.57,-60.34 11.5,-14.73 25.06,-23.04 40.64,-24.89 v -48.59 c -33.05,1.25 -61.39,14.34 -85.07,39.26 -25.08,26.17 -37.56,57.79 -37.56,94.93 0,37.15 12.48,68.84 37.56,95.15 23.68,24.8 52.02,37.83 85.07,39.08 v -49.36" /><path
         id="path144"
         style="fill:#211d1d;fill-opacity:1;fill-rule:nonzero;stroke:none"
         d="m 5578.43,9632.82 h -60.93 v 207.66 h 60.93 z m 67.83,266.9 v -49.32 h -199.65 v 49.32 h 199.65" /><path
         id="path146"
         style="fill:#211d1d;fill-opacity:1;fill-rule:nonzero;stroke:none"
         d="m 5911.17,9680.66 c 17.33,0.89 32.16,9.29 44.53,25.27 13.05,16.65 19.61,36.8 19.61,60.34 0,23.68 -6.56,43.86 -19.61,60.55 -12.37,15.83 -27.2,24.2 -44.53,25.05 v 49.16 c 33.53,-1.1 62.28,-14.2 86.33,-39.24 25.08,-26.31 37.59,-58 37.59,-95.15 0,-37.14 -12.51,-68.76 -37.59,-94.93 -24.05,-25.19 -52.8,-38.33 -86.33,-39.44 z m -9.7,170.85 c -15.58,-1.89 -29.12,-10.1 -40.59,-24.69 -13.1,-16.69 -19.61,-36.87 -19.61,-60.55 0,-23.54 6.51,-43.69 19.61,-60.34 11.47,-14.73 25.01,-23.04 40.59,-24.89 v -48.59 c -33.05,1.25 -61.39,14.34 -85.03,39.26 -25.07,26.17 -37.61,57.79 -37.61,94.93 0,37.15 12.54,68.84 37.61,95.15 23.64,24.8 51.98,37.83 85.03,39.08 v -49.36" /><path
         id="path148"
         style="fill:#211d1d;fill-opacity:1;fill-rule:nonzero;stroke:none"
         d="m 6348.67,9752.82 c 4.72,-4.87 9.26,-11.91 13.64,-21.11 1.82,-2.01 3.45,-9.97 4.87,-23.94 l 1.83,-9.52 5.62,-29.53 c 1.21,-3.13 2.84,-9.11 4.87,-17.95 2.11,-3.24 5.92,-9.16 11.39,-17.77 l -63.77,-0.35 c -2.07,0 -5.92,7.57 -11.38,22.78 -1.1,1.88 -4.28,19.64 -9.53,53.28 -2.25,7.98 -7.35,14.31 -15.35,19.06 -7.44,2.61 -25.75,3.94 -54.9,3.94 v 48.6 h 48.76 c 19.06,6.72 28.6,19.29 28.6,37.76 v 4.66 c -4.26,20.07 -15.67,30.47 -34.4,31.23 h -42.96 v 47.65 h 42.96 c 36,0 62.11,-9.79 78.32,-29.34 11.49,-16.72 17.17,-34.23 17.17,-52.54 v -3.53 c 0,-20.95 -6.04,-39.33 -18.06,-55.14 -2.29,-3 -4.84,-5.76 -7.68,-8.24 z m -122.46,-120.55 h -60.91 v 268.6 h 60.91 v -268.6" /><path
         id="path150"
         style="fill:#211d1d;fill-opacity:1;fill-rule:nonzero;stroke:none"
         d="m 6634.34,9900.29 c 26.79,0 50.4,-7.54 70.82,-22.6 11.97,-9.99 20.72,-28.42 26.19,-55.35 v -2.61 l -30.66,-3.73 -25.45,-1.67 c -2.37,14.69 -6.57,24.35 -12.68,28.97 -4.97,4.21 -14.34,8.16 -28.01,11.78 z m -26.75,-153.63 c -53.81,9.72 -80.73,34.68 -80.73,74.97 v 3.55 c 0,41.98 27.15,66.7 81.49,74.17 l 16.83,0.37 0.36,-44.64 c -12.21,-0.99 -20.69,-2.51 -25.41,-4.48 -9.85,-3.79 -14.65,-12.23 -14.42,-25.42 0,-12.36 15.65,-21.39 46.91,-27.12 7.86,-1.39 14.32,-2.68 19.28,-3.93 55.46,-9.23 83.18,-35.64 83.18,-79.25 v -3.74 c 0,-44.73 -27.15,-71.11 -81.52,-79.04 l -18.32,-0.57 v 47.27 c 12.98,1.38 21.84,3.13 26.57,5.22 9.86,4 14.65,13.05 14.37,27.12 0,13.21 -15.4,23.41 -46.36,30.66 -6.99,2.1 -14.66,3.93 -22.97,5.4 z m -20.2,-53.64 c 11.48,-6.62 22.38,-10.54 32.76,-11.79 l 5.39,-0.94 -0.36,-48.02 c -32.54,-0.87 -57.45,5.77 -74.77,19.99 -19.34,12.47 -29.65,34.14 -31.06,65.05 l 56.27,5.42 c 0.99,-13.09 4.93,-22.72 11.77,-28.97 v -0.74" /><path
         id="path152"
         style="fill:#211d1d;fill-opacity:1;fill-rule:nonzero;stroke:none"
         d="m 7093.48,9900.29 c 26.83,0 50.44,-7.54 70.83,-22.6 11.97,-9.99 20.72,-28.42 26.22,-55.35 v -2.61 l -30.69,-3.73 -25.42,-1.67 c -2.36,14.69 -6.59,24.35 -12.71,28.97 -4.99,4.21 -14.33,8.16 -28.03,11.78 z m -26.73,-153.63 c -53.76,9.72 -80.7,34.68 -80.7,74.97 v 3.55 c 0,41.98 27.15,66.7 81.48,74.17 l 16.8,0.37 0.39,-44.64 c -12.22,-0.99 -20.72,-2.51 -25.39,-4.48 -9.89,-3.79 -14.69,-12.23 -14.43,-25.42 0,-12.36 15.66,-21.39 46.92,-27.12 7.84,-1.39 14.3,-2.68 19.27,-3.93 55.43,-9.23 83.14,-35.64 83.14,-79.25 v -3.74 c 0,-44.73 -27.17,-71.11 -81.51,-79.04 l -18.28,-0.57 v 47.27 c 12.94,1.38 21.77,3.13 26.55,5.22 9.8,4 14.6,13.05 14.35,27.12 0,13.21 -15.42,23.41 -46.33,30.66 -6.98,2.1 -14.64,3.93 -22.95,5.4 z m -20.15,-53.64 c 11.45,-6.62 22.35,-10.54 32.69,-11.79 l 5.43,-0.94 -0.39,-48.02 c -32.51,-0.87 -57.43,5.77 -74.79,19.99 -19.26,12.47 -29.62,34.14 -31.01,65.05 l 56.27,5.42 c 1.03,-13.09 4.93,-22.72 11.8,-28.97 v -0.74" /><path
         id="path154"
         style="fill:#211d1d;fill-opacity:1;fill-rule:nonzero;stroke:none"
         d="m 7385.9,9632.27 h -60.93 v 268.6 h 60.93 v -268.6" /><path
         id="path156"
         style="fill:#211d1d;fill-opacity:1;fill-rule:nonzero;stroke:none"
         d="m 7673.81,9900.29 h 60.88 v -251.95 l -60.88,101.67 z m 2.43,-267.84 -159.24,267.68 h 57.91 l 159.46,-267.86 z m -99.06,-0.18 h -60.94 v 251.96 l 60.94,-101.69 v -150.27" /><path
         id="path158"
         style="fill:#211d1d;fill-opacity:1;fill-rule:nonzero;stroke:none"
         d="m 8085.44,9671.71 c -24.07,-25.19 -52.81,-38.33 -86.36,-39.44 v 48.39 c 17.36,0.89 32.19,9.29 44.51,25.27 6.1,7.83 10.8,16.42 14.01,25.78 l 51.61,-26.74 c -6.01,-11.95 -13.9,-23.04 -23.77,-33.26 z m -41.85,155.11 c -12.32,15.83 -27.15,24.2 -44.51,25.05 v 49.16 c 33.55,-1.1 62.29,-14.2 86.36,-39.24 12.2,-12.84 21.4,-26.98 27.62,-42.42 l -53.04,-26.16 c -3.11,12.45 -8.62,23.66 -16.43,33.61 z m -54.23,24.69 c -15.53,-1.89 -29.07,-10.1 -40.55,-24.69 -13.07,-16.69 -19.58,-36.87 -19.58,-60.55 0,-23.54 6.51,-43.69 19.58,-60.34 11.48,-14.73 25.02,-23.04 40.55,-24.89 v -48.59 c -32.96,1.25 -61.39,14.34 -85,39.26 -25.07,26.17 -37.59,57.79 -37.59,94.93 0,37.15 12.52,68.84 37.59,95.15 23.61,24.8 52.04,37.83 85,39.08 v -49.36" /><path
         id="path160"
         style="fill:#211d1d;fill-opacity:1;fill-rule:nonzero;stroke:none"
         d="m 8439.37,9681.98 v -49.33 h -125.62 v 49.33 z m -10.44,116.82 v -49.34 h -115.36 v 49.34 z m 9.85,101.49 v -49.35 h -125.55 v 49.35 z m -136.04,-268.02 h -60.9 v 268.6 h 60.9 v -268.6" /><path
         id="path162"
         style="fill:#211d1d;fill-opacity:1;fill-rule:nonzero;stroke:none"
         d="m 9002.48,9681.79 v -49.34 h -141.11 v 49.34 z m -143.91,162.25 c -6.49,-5.85 -10.24,-14.84 -11.25,-26.93 l -53.28,5.07 c 1.31,28.63 11.09,48.77 29.37,60.35 16.49,13.22 40.06,19.45 70.81,18.71 l 0.43,-44.67 -5.06,-0.94 c -9.85,-1.13 -20.17,-4.82 -31.02,-11.05 z m -64.66,-160.37 v 7.85 c 0,43.63 28.49,73.02 85.41,88.21 4.97,1.27 11.39,2.58 19.24,3.92 30.53,8.85 45.41,23.07 44.67,42.65 0.25,13.18 -4.55,21.68 -14.41,25.4 -4.72,2.01 -13.15,3.47 -25.42,4.5 l 0.42,44.67 16.81,-0.39 c 54.28,-7.46 81.5,-32.21 81.5,-74.18 v -3.57 c 0,-40.26 -26.21,-70.39 -78.53,-90.48 -7.88,-1.08 -15.28,-2.71 -22.25,-4.84 -33.46,-9.74 -49.66,-22.93 -48.57,-39.63 l 0.18,-56.08 h -59.05 v 51.97" /><path
         id="path164"
         style="fill:#211d1d;fill-opacity:1;fill-rule:nonzero;stroke:none"
         d="m 9230.22,9900.48 c 32.52,-1.13 56.4,-10.9 71.6,-29.36 l 0.9,0.94 v -0.94 l -0.9,-0.93 c 11.43,-17.43 17.14,-35.61 17.14,-54.58 v -96.63 c 0,-21.81 -8.23,-42.78 -24.81,-62.96 -12.37,-13.73 -33.66,-21.69 -63.93,-23.92 v 51.04 c 18.47,6.32 27.67,18.92 27.67,37.71 v 97.76 c -3.72,18.33 -12.96,28.59 -27.67,30.85 z m -13.45,-50.47 c -14.67,-2.23 -23.95,-12.51 -27.69,-30.84 v -97.76 c 0,-18.78 9.23,-31.38 27.69,-37.74 v -51.02 c -30.26,2.23 -51.62,10.21 -63.94,23.9 -16.54,20.21 -24.85,41.21 -24.85,62.99 v 96.66 c 0,18.92 5.74,37.12 17.19,54.56 l -0.92,0.94 v 0.93 l 0.92,-0.93 c 15.21,18.43 39.04,28.23 71.6,29.33 v -51.02" /><path
         id="path166"
         style="fill:#211d1d;fill-opacity:1;fill-rule:nonzero;stroke:none"
         d="m 9552.88,9900.48 c 32.55,-1.13 56.46,-10.9 71.65,-29.36 l 0.87,0.94 v -0.94 l -0.87,-0.93 c 11.44,-17.43 17.14,-35.61 17.14,-54.58 v -96.63 c 0,-21.81 -8.23,-42.78 -24.81,-62.96 -12.33,-13.73 -33.67,-21.69 -63.98,-23.92 v 51.04 c 18.46,6.32 27.7,18.92 27.7,37.71 v 97.76 c -3.76,18.33 -12.96,28.59 -27.7,30.85 z m -13.43,-50.47 c -14.75,-2.23 -23.92,-12.51 -27.66,-30.84 v -97.76 c 0,-18.78 9.25,-31.38 27.66,-37.74 v -51.02 c -30.29,2.23 -51.56,10.21 -63.95,23.9 -16.56,20.21 -24.82,41.21 -24.82,62.99 v 96.66 c 0,18.92 5.7,37.12 17.23,54.56 l -0.99,0.94 v 0.93 l 0.99,-0.93 c 15.18,18.43 39.02,28.23 71.54,29.33 v -51.02" /><path
         id="path168"
         style="fill:#211d1d;fill-opacity:1;fill-rule:nonzero;stroke:none"
         d="m 9832.98,9842.91 c -2.74,-26.91 11.46,-41.12 42.58,-42.62 10.44,0.11 21.37,-1.68 32.78,-5.41 48.81,-16.21 73.23,-44.44 73.23,-84.66 v -3.56 c 0,-42.03 -27.15,-66.73 -81.48,-74.21 l -16.84,-0.35 -0.33,44.66 c 12.17,1.02 20.64,2.49 25.42,4.47 9.8,3.75 14.62,12.21 14.38,25.43 0.71,19.58 -12.69,33.77 -40.22,42.61 -10.83,1.39 -20.68,2.69 -29.54,3.92 -54.57,3.86 -80.88,33.71 -78.89,89.53 z m 5.03,-154.58 c 10.87,-6.24 21.14,-9.9 30.87,-11.01 l 5.23,-0.96 -0.39,-44.66 c -30.75,-0.75 -54.41,5.48 -70.8,18.7 -18.33,11.6 -28.11,31.69 -29.37,60.36 l 53.27,5.05 c 0.98,-12.09 4.74,-21.06 11.19,-26.92 z m -64.46,162.8 v 49.35 h 208.41 v -49.35 h -208.41" /><path
         id="path170"
         style="fill:#e0f5fd;fill-opacity:1;fill-rule:evenodd;stroke:none"
         d="m 4894.98,613.059 c 1439.17,0 2612.95,337.371 2612.95,751.021 0,413.65 -1173.78,751.02 -2612.95,751.02 -1439.15,0 -2612.92,-337.37 -2612.92,-751.02 0,-413.65 1173.77,-751.021 2612.92,-751.021" /><path
         id="path172"
         style="fill:#fbca07;fill-opacity:1;fill-rule:evenodd;stroke:none"
         d="m 5336.37,1728.75 c 0,248.14 349.21,324.88 822.6,324.88 473.39,0 891.73,-76.74 891.73,-324.88 0,-248.16 -418.34,-573.72 -891.73,-573.72 -473.39,0 -822.6,325.56 -822.6,573.72" /><path
         id="path174"
         style="fill:#d4ad14;fill-opacity:1;fill-rule:evenodd;stroke:none"
         d="m 6947.5,1495.36 c -152.84,-180.82 -457.17,-340.33 -788.53,-340.33 -319.59,0 -582.55,148.39 -719.71,321.15 193.79,-80.65 438.29,-134.53 712.05,-134.53 294.94,0 574.79,62.58 796.19,153.71" /><path
         id="path176"
         style="fill:#fbca07;fill-opacity:1;fill-rule:evenodd;stroke:none"
         d="m 4552.79,1728.75 c 0,248.14 -349.18,324.88 -822.57,324.88 -473.39,0 -891.72,-76.74 -891.72,-324.88 0,-248.16 418.33,-573.72 891.72,-573.72 473.39,0 822.57,325.56 822.57,573.72" /><path
         id="path178"
         style="fill:#d4ad14;fill-opacity:1;fill-rule:evenodd;stroke:none"
         d="m 2941.69,1495.36 c 152.81,-180.82 457.17,-340.33 788.53,-340.33 319.57,0 582.52,148.39 719.7,321.15 -193.79,-80.65 -438.31,-134.53 -712.05,-134.53 -294.93,0 -574.81,62.58 -796.18,153.71" /><path
         id="path180"
         style="fill:#2f2d2d;fill-opacity:1;fill-rule:evenodd;stroke:none"
         d="m 6173.69,4352.33 c -141.55,203.82 207.96,312.76 596.78,582.78 388.81,270.04 669.73,598.94 811.25,395.12 141.57,-203.82 90.17,-863.16 -298.65,-1133.17 -388.82,-270.08 -967.82,-48.52 -1109.38,155.27" /><path
         id="path182"
         style="fill:#2f2d2d;fill-opacity:1;fill-rule:evenodd;stroke:none"
         d="m 3591.97,4514.5 c 0,248.14 -349.2,138.26 -822.6,138.26 -473.39,0 -891.72,109.88 -891.72,-138.26 0,-248.15 418.33,-760.38 891.72,-760.38 473.4,0 822.6,512.23 822.6,760.38" /><path
         id="path184"
         style="fill:#100f0d;fill-opacity:1;fill-rule:evenodd;stroke:none"
         d="m 6617.47,4342.55 c 177.47,-296.35 279.51,-643.05 279.51,-1013.65 0,-1091.45 -884.82,-1976.28 -1976.28,-1976.28 -1091.47,0 -1976.28,884.83 -1976.28,1976.28 0,370.6 102.01,717.3 279.51,1013.65 194.86,325.42 246.08,588.76 246.08,962.64 0,801.18 649.49,1450.67 1450.69,1450.67 801.17,0 1450.66,-649.49 1450.66,-1450.67 0,-373.88 51.21,-637.22 246.11,-962.64" /><path
         id="path186"
         style="fill:#ffffff;fill-opacity:1;fill-rule:evenodd;stroke:none"
         d="m 6162.67,4417.36 c 129.92,-216.94 204.62,-470.7 204.62,-741.97 0,-798.93 -647.68,-1446.58 -1446.59,-1446.58 -798.95,0 -1446.6,647.65 -1446.6,1446.58 0,271.27 74.69,525.03 204.6,741.97 142.63,238.18 180.13,430.95 180.13,704.62 0,428.87 255.86,794.93 620.27,965.96 128.85,60.48 284.94,-0.79 405.3,-291.2 128.16,331.15 299.19,366.41 476.77,291.71 371.45,-156.23 621.36,-537.15 621.36,-966.47 0,-273.67 37.51,-466.44 180.14,-704.62" /><path
         id="path188"
         style="fill:#100f0d;fill-opacity:1;fill-rule:evenodd;stroke:none"
         d="m 4321.21,4638.94 c 137.08,0 248.84,235.21 248.84,523.63 0,288.4 -111.76,523.62 -248.84,523.62 -137.06,0 -248.83,-235.22 -248.83,-523.62 0,-288.42 111.77,-523.63 248.83,-523.63" /><path
         id="path190"
         style="fill:#100f0d;fill-opacity:1;fill-rule:evenodd;stroke:none"
         d="m 5510.18,4638.94 c 137.05,0 248.85,235.21 248.85,523.63 0,288.4 -111.8,523.62 -248.85,523.62 -137.07,0 -248.85,-235.22 -248.85,-523.62 0,-288.42 111.78,-523.63 248.85,-523.63" /><path
         id="path192"
         style="fill:#ffffff;fill-opacity:1;fill-rule:evenodd;stroke:none"
         d="m 5365.01,5292.18 c 78.99,0 143.43,64.44 143.43,143.44 0,79 -64.44,143.44 -143.43,143.44 -78.99,0 -143.44,-64.44 -143.44,-143.44 0,-79 64.45,-143.44 143.44,-143.44" /><path
         id="path194"
         style="fill:#ffffff;fill-opacity:1;fill-rule:evenodd;stroke:none"
         d="m 5295,4977.66 c 47.13,0 85.56,38.42 85.56,85.54 0,47.11 -38.43,85.54 -85.56,85.54 -47.1,0 -85.54,-38.43 -85.54,-85.54 0,-47.12 38.44,-85.54 85.54,-85.54" /><path
         id="path196"
         style="fill:#ffffff;fill-opacity:1;fill-rule:evenodd;stroke:none"
         d="m 4176.07,5292.18 c 78.97,0 143.42,64.44 143.42,143.44 0,79 -64.45,143.44 -143.42,143.44 -79.02,0 -143.45,-64.44 -143.45,-143.44 0,-79 64.43,-143.44 143.45,-143.44" /><path
         id="path198"
         style="fill:#ffffff;fill-opacity:1;fill-rule:evenodd;stroke:none"
         d="m 4106.07,4977.66 c 47.12,0 85.53,38.42 85.53,85.54 0,47.11 -38.41,85.54 -85.53,85.54 -47.12,0 -85.56,-38.43 -85.56,-85.54 0,-47.12 38.44,-85.54 85.56,-85.54" /><path
         id="path200"
         style="fill:#f14960;fill-opacity:1;fill-rule:evenodd;stroke:none"
         d="m 3416.14,5034.45 c 1014.1,-295.11 2016.99,-266.53 3011.95,-7.3 215.68,56.19 349.83,-596.75 134.7,-654.9 -1104.14,-298.49 -2198.67,-299.05 -3283.68,-4.91 -308.23,83.54 -196.65,764.22 137.03,667.11" /><path
         id="path202"
         style="fill:#d82a34;fill-opacity:1;fill-rule:evenodd;stroke:none"
         d="m 6138.72,4958.42 c 96.53,20.69 192.98,43.62 289.37,68.73 88.1,22.95 162.55,-72.39 205.22,-197.18 L 6376.27,4324.68 C 6169.34,4275 5962.75,4235.78 5756.51,4207 Z m -1034.8,-131.75 c 195.84,7.27 391.34,24.89 586.48,52.18 l -364.6,-716.81 c -189.1,-13.06 -377.9,-17.29 -566.4,-12.72 l 344.52,677.35 z m -943.47,47.72 c 178.9,-25.18 357.44,-40.9 535.68,-47.68 l -333.05,-654.75 c -175.02,15.73 -349.79,39.03 -524.33,69.96 l 321.7,632.47 z m -744.31,160.06 c 123.58,-35.95 247.03,-67.08 370.29,-93.61 L 3469.97,4318.7 c -63.66,15.2 -127.28,31.41 -190.86,48.64 -130.09,35.25 -185.39,176.87 -180.78,321.48 l 170.81,335.82 c 42.27,20.51 91.55,25.95 147,9.81 v 0" /><path
         id="path204"
         style="fill:#f5768a;fill-opacity:1;fill-rule:evenodd;stroke:none"
         d="M 5690.4,4878.85 C 6177.53,4270 6074.81,2947.01 7210.59,3100.91 c 386.93,152.19 691.68,359.17 746.54,732.74 -994.06,-317.84 -1047.99,788.3 -1572.02,1182.46 -233.64,175.73 -797.89,-8.31 -694.71,-137.26" /><path
         id="path206"
         style="fill:#e73241;fill-opacity:1;fill-rule:evenodd;stroke:none"
         d="m 6532.92,3250.22 513.97,838.42 c 104.7,-131.71 227.04,-236.77 387.41,-284.15 l -295.09,-711.24 c -264.75,-22.32 -458.09,40.5 -606.29,156.97 z m -655.99,1311.51 c 89.78,-198.26 159.02,-421.61 238.37,-633.37 l 612.99,665.17 c -97.31,161.57 -201.2,313.18 -336.45,417.31 l -514.91,-449.11 v 0" /><path
         id="path208"
         style="fill:#dab013;fill-opacity:1;fill-rule:evenodd;stroke:none"
         d="m 4920.99,4361.47 230.48,461.4 -230.48,100.25 -230.49,-100.25 230.49,-461.4" /><path
         id="path210"
         style="fill:#fbca07;fill-opacity:1;fill-rule:evenodd;stroke:none"
         d="m 4920.99,4923.12 1.57,-35.31 -1.57,-526.34 -230.49,461.4 230.49,100.25" /><path
         id="path212"
         style="fill:#fbe558;fill-opacity:1;fill-rule:evenodd;stroke:none"
         d="m 4878.91,4882.39 0.88,-20.21 -0.88,-300.98 -131.81,263.87 131.81,57.32" /><path
         id="path214"
         style="fill:#f68294;fill-opacity:1;fill-rule:evenodd;stroke:none"
         d="m 7114.21,6448.24 c 0,17.97 14.56,32.53 32.51,32.53 17.99,0 32.55,-14.56 32.55,-32.53 V 5076.11 c 0,-17.96 -14.59,-32.52 -32.55,-32.52 -17.95,0 -32.51,14.56 -32.51,32.52 v 1372.13" /><path
         id="path216"
         style="fill:#c82c37;fill-opacity:1;fill-rule:evenodd;stroke:none"
         d="m 7146.72,6518.79 77.1,-121.82 77.06,-121.84 h -308.29 l 77.06,121.84 77.07,121.82" /><path
         id="path218"
         style="fill:#f14960;fill-opacity:1;fill-rule:evenodd;stroke:none"
         d="m 7146.72,9075.01 c 622.29,0 1126.75,-504.45 1126.75,-1126.74 0,-622.29 -504.46,-1500.03 -1126.75,-1500.03 -622.28,0 -1126.72,877.74 -1126.72,1500.03 0,622.29 504.44,1126.74 1126.72,1126.74" /><path
         id="path220"
         style="fill:#e43443;fill-opacity:1;fill-rule:evenodd;stroke:none"
         d="m 8273.21,7927.56 c -10.96,-620.87 -511.07,-1479.32 -1126.49,-1479.32 -484.39,0 -897.37,531.89 -1056.59,1061.12 234.54,-354.26 589.82,-632.53 987.49,-632.53 546.19,0 1012.32,524.95 1195.59,1050.73" /><path
         id="path222"
         style="fill:#f5768a;fill-opacity:1;fill-rule:evenodd;stroke:none"
         d="m 6835.83,8979.21 c 280.32,94.74 552.44,38.86 607.74,-124.83 55.36,-163.7 -127.07,-373.21 -407.39,-467.97 -280.34,-94.74 -552.44,-38.86 -607.78,124.85 -55.33,163.68 127.09,373.2 407.43,467.95" /></g></g></svg>